<svg xmlns="http://www.w3.org/2000/svg" xmlns:xlink="http://www.w3.org/1999/xlink" width="37" height="37" viewBox="0 0 37 37"><defs><path id="q2lra" d="M1164 126.5a18.5 18.5 0 1 1 37 0 18.5 18.5 0 0 1-37 0z"/><path id="q2lrb" d="M1173.25 135.75v-20.81h20.81v20.81z"/><path id="q2lrc" d="M1181.62 125.62h-3.64c-.53 0-.92.28-.92.88s.39.88.92.88h3.64v3.64c0 .53.28.92.88.92s.88-.39.88-.92v-3.64h3.64c.53 0 .92-.28.92-.88s-.39-.88-.92-.88h-3.64v-3.64c0-.53-.28-.92-.88-.92s-.88.39-.88.92z"/></defs><g><g transform="translate(-1164 -108)"><g><use fill="#4489ff" xlink:href="#q2lra"/></g><g><g><use fill="#fff" xlink:href="#q2lrc"/></g></g></g></g></svg>