<svg xmlns="http://www.w3.org/2000/svg" xmlns:xlink="http://www.w3.org/1999/xlink" width="43" height="43" viewBox="0 0 43 43"><defs><path id="4wv4a" d="M120 233.39c0-10.87 6.83-11.39 6.83-11.39H155.31s5.69-.33 5.69 11.39v25.05a4.56 4.56 0 0 1-4.56 4.56h-31.88a4.56 4.56 0 0 1-4.56-4.56z"/><path id="4wv4b" d="M134 263v-20h14v20"/><path id="4wv4c" d="M134 231a7 7 0 1 1-14 0"/><path id="4wv4d" d="M147 231c0 3.87-2.9 7-6.5 7-3.59 0-6.5-3.13-6.5-7"/><path id="4wv4e" d="M161 231a7 7 0 1 1-14 0"/><path id="4wv4f" d="M134 231v-8"/><path id="4wv4g" d="M147 231v-8"/></defs><g><g transform="translate(-119 -221)"><g><use fill="#fff" fill-opacity="0" stroke="#4489ff" stroke-linecap="round" stroke-linejoin="round" stroke-miterlimit="50" stroke-width="1.2" xlink:href="#4wv4a"/></g><g><use fill="#fff" fill-opacity="0" stroke="#4489ff" stroke-linecap="round" stroke-linejoin="round" stroke-miterlimit="50" stroke-width="1.2" xlink:href="#4wv4b"/></g><g><use fill="#fff" fill-opacity="0" stroke="#4489ff" stroke-linecap="round" stroke-linejoin="round" stroke-miterlimit="50" stroke-width="1.2" xlink:href="#4wv4c"/></g><g><use fill="#fff" fill-opacity="0" stroke="#4489ff" stroke-linecap="round" stroke-linejoin="round" stroke-miterlimit="50" stroke-width="1.2" xlink:href="#4wv4d"/></g><g><use fill="#fff" fill-opacity="0" stroke="#4489ff" stroke-linecap="round" stroke-linejoin="round" stroke-miterlimit="50" stroke-width="1.2" xlink:href="#4wv4e"/></g><g><use fill="#fff" fill-opacity="0" stroke="#4489ff" stroke-linecap="round" stroke-linejoin="round" stroke-miterlimit="50" stroke-width="1.2" xlink:href="#4wv4f"/></g><g><use fill="#fff" fill-opacity="0" stroke="#4489ff" stroke-linecap="round" stroke-linejoin="round" stroke-miterlimit="50" stroke-width="1.2" xlink:href="#4wv4g"/></g></g></g></svg>