<?xml version="1.0" encoding="UTF-8"?>
<svg width="19px" height="19px" viewBox="0 0 19 19" version="1.1" xmlns="http://www.w3.org/2000/svg" xmlns:xlink="http://www.w3.org/1999/xlink">
    <!-- Generator: Sketch 48.2 (47327) - http://www.bohemiancoding.com/sketch -->
    <title>Page 1</title>
    <desc>Created with Sketch.</desc>
    <defs></defs>
    <g id="Mail-width-360-Copy" stroke="none" stroke-width="1" fill="none" fill-rule="evenodd" transform="translate(-31.000000, -204.000000)" stroke-linecap="round" stroke-linejoin="round">
        <g id="Page-1" transform="translate(32.000000, 205.000000)" stroke="#000000" stroke-width="1.19999993">
            <path d="M0,4.72251497 C0,0.213844696 2.83333333,0.000405341066 2.83333333,0.000405341066 L8.30355556,0.000405341066 L14.6388889,0.000405341066 C14.6388889,0.000405341066 17,-0.138424682 17,4.72251497 L17,15.1111561 C17,16.153798 16.1537778,17 15.1111111,17 L1.88888889,17 C0.846222222,17 0,16.153798 0,15.1111561 L0,4.72251497 Z" id="Stroke-1"></path>
            <polyline id="Stroke-3" points="5.95 17 5.95 8.5 11.9 8.5 11.9 17"></polyline>
            <path d="M5.95,3.4 C5.95,4.80891591 4.61795543,5.95 2.97449772,5.95 C1.33104001,5.95 0,4.80891591 0,3.4" id="Stroke-5"></path>
            <path d="M11.05,3.4 C11.05,4.80844024 9.90910856,5.95 8.50043053,5.95 C7.09175249,5.95 5.95,4.80844024 5.95,3.4" id="Stroke-7"></path>
            <path d="M17,3.4 C17,4.80844024 15.6681803,5.95 14.025,5.95 C12.3818197,5.95 11.05,4.80844024 11.05,3.4" id="Stroke-9"></path>
            <path d="M5.95,3.4 L5.95,0" id="Stroke-11"></path>
            <path d="M11.05,3.4 L11.05,0" id="Stroke-13"></path>
        </g>
    </g>
</svg>