<svg xmlns="http://www.w3.org/2000/svg" xmlns:xlink="http://www.w3.org/1999/xlink" width="19" height="19" viewBox="0 0 19 19"><defs><path id="wn4va" d="M32 184.72c0-4.5 2.83-4.72 2.83-4.72H46.64s2.36-.14 2.36 4.72v10.4c0 1.03-.85 1.88-1.89 1.88H33.9a1.89 1.89 0 0 1-1.89-1.89z"/><path id="wn4vb" d="M37.95 197v-8.5h5.95v8.5"/><path id="wn4vc" d="M37.95 183.4c0 1.4-1.33 2.55-2.98 2.55-1.64 0-2.97-1.14-2.97-2.55"/><path id="wn4vd" d="M43.05 183.4a2.55 2.55 0 1 1-5.1 0"/><path id="wn4ve" d="M49 183.4c0 1.4-1.33 2.55-2.98 2.55-1.64 0-2.97-1.14-2.97-2.55"/><path id="wn4vf" d="M37.95 183.4V180"/><path id="wn4vg" d="M43.05 183.4V180"/></defs><g><g transform="translate(-31 -179)"><g><use fill="#fff" fill-opacity="0" stroke="#4489ff" stroke-linecap="round" stroke-linejoin="round" stroke-miterlimit="50" stroke-width="1.2" xlink:href="#wn4va"/></g><g><use fill="#fff" fill-opacity="0" stroke="#4489ff" stroke-linecap="round" stroke-linejoin="round" stroke-miterlimit="50" stroke-width="1.2" xlink:href="#wn4vb"/></g><g><use fill="#fff" fill-opacity="0" stroke="#4489ff" stroke-linecap="round" stroke-linejoin="round" stroke-miterlimit="50" stroke-width="1.2" xlink:href="#wn4vc"/></g><g><use fill="#fff" fill-opacity="0" stroke="#4489ff" stroke-linecap="round" stroke-linejoin="round" stroke-miterlimit="50" stroke-width="1.2" xlink:href="#wn4vd"/></g><g><use fill="#fff" fill-opacity="0" stroke="#4489ff" stroke-linecap="round" stroke-linejoin="round" stroke-miterlimit="50" stroke-width="1.2" xlink:href="#wn4ve"/></g><g><use fill="#fff" fill-opacity="0" stroke="#4489ff" stroke-linecap="round" stroke-linejoin="round" stroke-miterlimit="50" stroke-width="1.2" xlink:href="#wn4vf"/></g><g><use fill="#fff" fill-opacity="0" stroke="#4489ff" stroke-linecap="round" stroke-linejoin="round" stroke-miterlimit="50" stroke-width="1.2" xlink:href="#wn4vg"/></g></g></g></svg>