<?xml version="1.0" encoding="utf-8"?>
<!-- Generator: Adobe Illustrator 21.1.0, SVG Export Plug-In . SVG Version: 6.00 Build 0)  -->
<svg version="1.1" id="Layer_1" xmlns="http://www.w3.org/2000/svg" xmlns:xlink="http://www.w3.org/1999/xlink" x="0px" y="0px"
	 viewBox="0 0 92 31" style="enable-background:new 0 0 92 31;" xml:space="preserve">
<style type="text/css">
	.st0{fill:#3F86FF;}
</style>
<g>
	<g>
		<g>
			<g>
				<g>
					<path class="st0" d="M80.9,0.3l-5.5,0.2c-5.7,0.2-10.2,4.9-10,10.6s4.9,10.2,10.6,10l5.5-0.2c5.7-0.2,10.2-4.9,10-10.6
						S86.6,0.1,80.9,0.3z M78.5,12.8l-2.5,0l0,2.4c0,0.6-0.4,1-1,1c-0.6,0-1-0.4-1-1l0-2.4l-2.5,0c-0.6,0-1-0.4-1-1c0-0.6,0.4-1,1-1
						l2.5,0l0-2.4c0-0.6,0.4-1,1-1c0.6,0,1,0.4,1,1l0,2.4l2.5,0c0.6,0,1,0.4,1,1C79.5,12.4,79.1,12.8,78.5,12.8z M84,16
						c-0.7,0-1.3-0.5-1.3-1.3l0-8.2l-1,0c-0.8,0-1.2-0.6-1.2-1.1c0-0.6,0.4-1.1,1.2-1.1l2.4,0c0.7,0,1.1,0.5,1.1,1.2l0,9.3
						C85.3,15.6,84.7,16,84,16z"/>
				</g>
			</g>
		</g>
	</g>
	<g>
		<g>
			<path class="st0" d="M0.2,19.9C0.2,13.7,4.6,9,10.9,9c6.3,0,10.7,4.9,10.7,10.9c0,6.1-4.3,10.9-10.7,10.9
				C4.6,30.8,0.2,26,0.2,19.9z M16.8,19.9c0-3.6-2-6.8-5.9-6.8s-5.9,3.2-5.9,6.8c0,3.6,1.9,6.8,5.9,6.8
				C14.9,26.7,16.8,23.5,16.8,19.9z"/>
			<path class="st0" d="M23.4,11.5c0-1.5,1-2.3,2.3-2.3c0.6,0,1.6,0.4,2,1l9.9,12.5h0.1V11.5c0-1.5,1-2.3,2.3-2.3
				c1.3,0,2.3,0.8,2.3,2.3v16.8c0,1.5-1,2.3-2.3,2.3c-0.6,0-1.5-0.4-2-1l-9.9-12.4h-0.1v11.1c0,1.5-1,2.3-2.3,2.3
				c-1.3,0-2.3-0.8-2.3-2.3V11.5z"/>
			<path class="st0" d="M45.6,11.9c0-1.5,0.8-2.6,2.4-2.6h7.7c1.5,0,2.2,1,2.2,2c0,1-0.7,2-2.2,2h-5.5v4.3h5.1c1.5,0,2.3,1,2.3,2
				c0,1-0.8,2-2.3,2h-5.1v4.5h5.8c1.5,0,2.2,1,2.2,2c0,1-0.7,2-2.2,2H48c-1.4,0-2.4-0.9-2.4-2.2V11.9z"/>
		</g>
	</g>
</g>
</svg>
