<svg xmlns="http://www.w3.org/2000/svg" xmlns:xlink="http://www.w3.org/1999/xlink" width="137" height="508" viewBox="0 0 137 508"><svg width="10" height="8" viewBox="0 0 10 8" id="angle_down" y="0"><title>Path 2 Copy 13</title><path d="M9 1L4.996 5 1 1.008" stroke-width="3" stroke="#000" fill="none" fill-rule="evenodd" opacity=".2"></path></svg><svg width="11" height="9" viewBox="0 0 11 9" id="checked" y="8"><title>Path 3 Copy 3</title><path d="M9.727 1L4.222 7.335 1 4.658" stroke-width="2" stroke="#3570FF" fill="none" fill-rule="evenodd"></path></svg><svg width="78" height="68" viewBox="0 0 78 68" id="heart" y="17"><title>Fill 1 Copy 7</title><path d="M55.916 0c-6.828 0-13.09 3.1-17.13 8.2C34.746 3.1 28.483 0 21.656 0 9.715 0 0 9.475 0 21.128 0 26.6 2.141 31.799 6.04 35.762l30.544 29.955 2.202 2.158 2.202-2.158 29.958-29.386c4.242-3.982 6.625-9.397 6.625-15.203C77.571 9.475 67.855 0 55.916 0" fill="#4489FF" fill-rule="evenodd"></path></svg><svg width="106" height="28" viewBox="0 0 106 28" id="logo-blue" y="85"><title>Page 1</title><g fill="#4489FF" fill-rule="evenodd"><path d="M98.585 14.05c-.636-.002-1.107-.403-1.104-1.11l.035-7.12-.874-.004c-.709-.003-1.004-.5-1.001-.983a.97.97 0 0 1 1.011-.974l2.1.01c.637.002.991.443.988 1.01l-.04 8.07c-.004.707-.48 1.102-1.115 1.1m-4.743-2.841l-2.146-.008-.009 2.057c-.003.511-.345.849-.893.847-.548-.001-.886-.344-.883-.855l.009-2.056-2.144-.008c-.548-.003-.888-.343-.885-.855.003-.51.346-.848.892-.847l2.146.01.01-2.057c.002-.511.344-.85.893-.85.546.004.885.346.882.856l-.009 2.056 2.145.01c.548.002.885.343.884.854-.003.51-.345.849-.892.846M95.886.434l-4.78.142c-4.949.147-8.844 4.26-8.695 9.189.146 4.927 4.277 8.803 9.228 8.657l4.779-.142c4.95-.146 8.843-4.259 8.696-9.187-.147-4.929-4.278-8.804-9.228-8.66M14.42 17.054c0-3.213-1.709-6.107-5.096-6.107-3.388 0-5.096 2.894-5.096 6.107 0 3.238 1.654 6.106 5.096 6.106s5.095-2.868 5.095-6.106M0 17.054c0-5.523 3.795-9.77 9.324-9.77 5.448 0 9.323 4.38 9.323 9.77 0 5.495-3.767 9.77-9.323 9.77C3.82 26.823 0 22.548 0 17.053M54.506 26.664c-1.166 0-2.033-.744-2.033-2.07V14.69h-.053l-8.782 11.097c-.462.585-1.193.876-1.708.876-1.166 0-2.032-.744-2.032-2.07V9.513c0-1.327.866-2.072 2.032-2.072s2.032.745 2.032 2.072v10.035h.055l8.781-11.23c.462-.585 1.193-.877 1.708-.877 1.166 0 2.032.745 2.032 2.072v15.08c0 1.326-.866 2.07-2.032 2.07M59.79 9.514c0-1.327.868-2.072 2.034-2.072 1.165 0 2.032.745 2.032 2.072v5.628h8.51V9.514c0-1.327.868-2.072 2.033-2.072 1.166 0 2.033.745 2.033 2.072v15.08c0 1.326-.867 2.07-2.033 2.07-1.165 0-2.032-.744-2.032-2.07v-5.789h-8.51v5.788c0 1.327-.868 2.07-2.033 2.07-1.166 0-2.034-.743-2.034-2.07V9.513zM30.541 22.815h-6.402l4.435-11.04a.667.667 0 0 1 .62-.419h2.558v11.459h-1.211zm4.846.062V9.547c0-.998-.813-1.809-1.817-1.809h-4.375a4.282 4.282 0 0 0-3.995 2.694l-4.99 12.422c-.667.095-1.243.534-1.467 1.182l-.52 1.508a1.808 1.808 0 0 0 1.718 2.397c.754 0 1.46-.47 1.719-1.221l.098-.287h11.534a1.815 1.815 0 0 0 1.792 1.508c1.004 0 1.817-.81 1.817-1.81v-1.507c0-.892-.66-1.6-1.514-1.747z"></path></g></svg><svg width="106" height="28" viewBox="0 0 106 28" id="logo-white" y="113"><title>Page 1</title><g fill="#FFF" fill-rule="evenodd"><path d="M98.585 14.05c-.636-.002-1.107-.403-1.104-1.11l.035-7.12-.874-.004c-.709-.003-1.004-.5-1.001-.983a.97.97 0 0 1 1.011-.974l2.1.01c.637.002.991.443.988 1.01l-.04 8.07c-.004.707-.48 1.102-1.115 1.1m-4.743-2.841l-2.146-.008-.009 2.057c-.003.511-.345.849-.893.847-.548-.001-.886-.344-.883-.855l.009-2.056-2.144-.008c-.548-.003-.888-.343-.885-.855.003-.51.346-.848.892-.847l2.146.01.01-2.057c.002-.511.344-.85.893-.85.546.004.885.346.882.856l-.009 2.056 2.145.01c.548.002.885.343.884.854-.003.51-.345.849-.892.846M95.886.434l-4.78.142c-4.949.147-8.844 4.26-8.695 9.189.146 4.927 4.277 8.803 9.228 8.657l4.779-.142c4.95-.146 8.843-4.259 8.696-9.187-.147-4.929-4.278-8.804-9.228-8.66M14.42 17.054c0-3.213-1.709-6.107-5.096-6.107-3.388 0-5.096 2.894-5.096 6.107 0 3.238 1.654 6.106 5.096 6.106s5.095-2.868 5.095-6.106M0 17.054c0-5.523 3.795-9.77 9.324-9.77 5.448 0 9.323 4.38 9.323 9.77 0 5.495-3.767 9.77-9.323 9.77C3.82 26.823 0 22.548 0 17.053M54.506 26.664c-1.166 0-2.033-.744-2.033-2.07V14.69h-.053l-8.782 11.097c-.462.585-1.193.876-1.708.876-1.166 0-2.032-.744-2.032-2.07V9.513c0-1.327.866-2.072 2.032-2.072s2.032.745 2.032 2.072v10.035h.055l8.781-11.23c.462-.585 1.193-.877 1.708-.877 1.166 0 2.032.745 2.032 2.072v15.08c0 1.326-.866 2.07-2.032 2.07M59.79 9.514c0-1.327.868-2.072 2.034-2.072 1.165 0 2.032.745 2.032 2.072v5.628h8.51V9.514c0-1.327.868-2.072 2.033-2.072 1.166 0 2.033.745 2.033 2.072v15.08c0 1.326-.867 2.07-2.033 2.07-1.165 0-2.032-.744-2.032-2.07v-5.789h-8.51v5.788c0 1.327-.868 2.07-2.033 2.07-1.166 0-2.034-.743-2.034-2.07V9.513zM30.541 22.815h-6.402l4.435-11.04a.667.667 0 0 1 .62-.419h2.558v11.459h-1.211zm4.846.062V9.547c0-.998-.813-1.809-1.817-1.809h-4.375a4.282 4.282 0 0 0-3.995 2.694l-4.99 12.422c-.667.095-1.243.534-1.467 1.182l-.52 1.508a1.808 1.808 0 0 0 1.718 2.397c.754 0 1.46-.47 1.719-1.221l.098-.287h11.534a1.815 1.815 0 0 0 1.792 1.508c1.004 0 1.817-.81 1.817-1.81v-1.507c0-.892-.66-1.6-1.514-1.747z"></path></g></svg><svg width="137" height="36" viewBox="0 0 137 36" id="logo_gray" y="141"><title>Page 1</title><g fill="#636F81" fill-rule="evenodd"><path d="M128.37 17.407c-.84-.002-1.462-.515-1.458-1.418l.046-9.1-1.155-.005c-.936-.004-1.326-.64-1.322-1.256.004-.632.494-1.249 1.336-1.245l2.775.011c.84.004 1.308.567 1.304 1.292L129.844 16c-.006.904-.634 1.409-1.474 1.407m-6.265-3.632l-2.834-.01-.012 2.628c-.004.654-.456 1.085-1.18 1.083-.724-.002-1.17-.44-1.167-1.092l.013-2.629-2.833-.01c-.724-.003-1.172-.439-1.168-1.092.004-.653.456-1.085 1.178-1.083l2.835.012.014-2.628c.002-.654.454-1.087 1.178-1.085.722.004 1.17.441 1.166 1.092l-.012 2.629 2.832.011c.724.004 1.17.44 1.168 1.093-.004.651-.456 1.085-1.178 1.08m2.7-13.769l-6.314.181c-6.537.189-11.682 5.446-11.486 11.745.194 6.297 5.651 11.25 12.19 11.064l6.312-.181c6.54-.187 11.682-5.444 11.488-11.743-.194-6.299-5.65-11.251-12.19-11.066M19.332 21.5c0-4.11-2.29-7.813-6.832-7.813S5.668 17.39 5.668 21.5c0 4.144 2.217 7.813 6.832 7.813s6.832-3.67 6.832-7.813M0 21.5C0 14.434 5.088 9 12.5 9 19.805 9 25 14.604 25 21.5 25 28.531 19.949 34 12.5 34 5.122 34 0 28.531 0 21.5M70.435 34c-1.471 0-2.566-.967-2.566-2.692v-12.88h-.067L56.72 32.861c-.583.76-1.506 1.139-2.155 1.139C53.093 34 52 33.033 52 31.308V11.694C52 9.97 53.093 9 54.565 9c1.471 0 2.564.969 2.564 2.694v13.052h.069L68.28 10.141C68.863 9.381 69.786 9 70.435 9 71.907 9 73 9.969 73 11.694v19.614C73 33.033 71.907 34 70.435 34M78 11.694C78 9.97 79.095 9 80.566 9c1.47 0 2.565.969 2.565 2.694v7.32h10.738v-7.32C93.87 9.97 94.964 9 96.434 9 97.905 9 99 9.969 99 11.694v19.614C99 33.033 97.905 34 96.434 34c-1.47 0-2.565-.967-2.565-2.692V23.78H83.131v7.528c0 1.725-1.095 2.692-2.565 2.692C79.095 34 78 33.033 78 31.308V11.694zM39.532 29.15H31.008l5.906-14.754a.888.888 0 0 1 .826-.56h3.405v15.313h-1.613zm6.452.082V11.418A2.42 2.42 0 0 0 43.564 9H37.74a5.701 5.701 0 0 0-5.318 3.6l-6.645 16.602c-.887.127-1.653.713-1.952 1.58l-.693 2.014a2.419 2.419 0 0 0 4.576 1.572l.131-.383H43.196A2.418 2.418 0 0 0 48 33.582v-2.015c0-1.193-.879-2.138-2.016-2.335z"></path></g></svg><svg width="20" height="17" viewBox="0 0 20 17" id="market-heart" y="177"><defs><path id="a" d="M49.61 321.33a4.85 4.85 0 0 0-6.7 0l-.91.87-.91-.87a4.9 4.9 0 0 0-6.7 0 4.38 4.38 0 0 0 0 6.4l.91.87L42 335l6.7-6.4.91-.87c.9-.85 1.39-2 1.39-3.2 0-1.2-.5-2.36-1.39-3.2z"></path></defs><use fill="#fff" fill-opacity="0" stroke="#000" stroke-linecap="round" stroke-linejoin="round" stroke-miterlimit="50" stroke-width="1.8" xlink:href="#a" transform="translate(-32 -319)"></use></svg><svg width="43" height="43" viewBox="0 0 43 43" id="market-shops" y="194"><defs><path id="a" d="M120 233.39c0-10.87 6.83-11.39 6.83-11.39h28.48s5.69-.33 5.69 11.39v25.05a4.56 4.56 0 0 1-4.56 4.56h-31.88a4.56 4.56 0 0 1-4.56-4.56z"></path><path id="b" d="M134 263v-20h14v20"></path><path id="c" d="M134 231a7 7 0 1 1-14 0"></path><path id="d" d="M147 231c0 3.87-2.9 7-6.5 7-3.59 0-6.5-3.13-6.5-7"></path><path id="e" d="M161 231a7 7 0 1 1-14 0"></path><path id="f" d="M134 231v-8"></path><path id="g" d="M147 231v-8"></path></defs><g transform="translate(-119 -221)"><use fill="#fff" fill-opacity="0" stroke="#4489ff" stroke-linecap="round" stroke-linejoin="round" stroke-miterlimit="50" stroke-width="1.2" xlink:href="#a"></use><use fill="#fff" fill-opacity="0" stroke="#4489ff" stroke-linecap="round" stroke-linejoin="round" stroke-miterlimit="50" stroke-width="1.2" xlink:href="#b"></use><use fill="#fff" fill-opacity="0" stroke="#4489ff" stroke-linecap="round" stroke-linejoin="round" stroke-miterlimit="50" stroke-width="1.2" xlink:href="#c"></use><use fill="#fff" fill-opacity="0" stroke="#4489ff" stroke-linecap="round" stroke-linejoin="round" stroke-miterlimit="50" stroke-width="1.2" xlink:href="#d"></use><use fill="#fff" fill-opacity="0" stroke="#4489ff" stroke-linecap="round" stroke-linejoin="round" stroke-miterlimit="50" stroke-width="1.2" xlink:href="#e"></use><use fill="#fff" fill-opacity="0" stroke="#4489ff" stroke-linecap="round" stroke-linejoin="round" stroke-miterlimit="50" stroke-width="1.2" xlink:href="#f"></use><use fill="#fff" fill-opacity="0" stroke="#4489ff" stroke-linecap="round" stroke-linejoin="round" stroke-miterlimit="50" stroke-width="1.2" xlink:href="#g"></use></g></svg><svg width="20" height="20" viewBox="0 0 20 20" id="market-squares" y="237"><defs><path id="a" d="M32 262v-7h7v7z"></path><path id="b" d="M43 262v-7h7v7z"></path><path id="c" d="M43 273v-7h7v7z"></path><path id="d" d="M32 273v-7h7v7z"></path></defs><g transform="translate(-31 -254)"><use fill="#fff" fill-opacity="0" stroke="#000" stroke-linecap="round" stroke-linejoin="round" stroke-miterlimit="50" stroke-width="1.4" xlink:href="#a"></use><use fill="#fff" fill-opacity="0" stroke="#000" stroke-linecap="round" stroke-linejoin="round" stroke-miterlimit="50" stroke-width="1.4" xlink:href="#b"></use><use fill="#fff" fill-opacity="0" stroke="#000" stroke-linecap="round" stroke-linejoin="round" stroke-miterlimit="50" stroke-width="1.4" xlink:href="#c"></use><use fill="#fff" fill-opacity="0" stroke="#000" stroke-linecap="round" stroke-linejoin="round" stroke-miterlimit="50" stroke-width="1.4" xlink:href="#d"></use></g></svg><svg width="40" height="45" viewBox="0 0 40 45" id="market-users" y="257"><defs><path id="a" d="M160 545v-4.67a9.42 9.42 0 0 0-9.5-9.33h-19a9.42 9.42 0 0 0-9.5 9.33V545"></path><path id="b" d="M131 511.5a9.5 9.5 0 1 1 19 0 9.5 9.5 0 0 1-19 0z"></path></defs><g transform="translate(-121 -501)"><use fill="#fff" fill-opacity="0" stroke="#000" stroke-linecap="round" stroke-linejoin="round" stroke-miterlimit="50" stroke-width="1.5" xlink:href="#a"></use><use fill="#fff" fill-opacity="0" stroke="#000" stroke-linecap="round" stroke-linejoin="round" stroke-miterlimit="50" stroke-width="1.5" xlink:href="#b"></use></g></svg><svg width="13" height="13" viewBox="0 0 13 13" id="message" y="302"><title>Page 1</title><path d="M11.6 5.922a5.004 5.004 0 0 1-.538 2.271 5.079 5.079 0 0 1-6.813 2.271L.842 11.6l1.136-3.407a5.012 5.012 0 0 1-.538-2.27A5.08 5.08 0 0 1 4.249 1.38a5.012 5.012 0 0 1 2.27-.538h.3A5.068 5.068 0 0 1 11.6 5.623v.3z" stroke="#FFF" stroke-width="1.6" fill="none" fill-rule="evenodd" stroke-linecap="round" stroke-linejoin="round"></path></svg><svg width="11" height="13" viewBox="0 0 11 13" id="pin" y="315"><title>Pin</title><g transform="translate(1 1)" stroke="#89A1B3" fill="none" fill-rule="evenodd" stroke-linecap="round" stroke-linejoin="round"><path d="M9.18 4.59c0 3.57-4.59 6.63-4.59 6.63S0 8.16 0 4.59a4.59 4.59 0 1 1 9.18 0z"></path><path d="M4.59 3.06a1.53 1.53 0 1 1 0 3.06 1.53 1.53 0 0 1 0-3.06z"></path></g></svg><svg width="12" height="12" viewBox="0 0 12 12" id="plus" y="328"><title>Page 1</title><g stroke="#152D48" stroke-width="2" fill="none" fill-rule="evenodd" opacity=".2" stroke-linejoin="round"><path d="M6 0v12M0 6h12"></path></g></svg><svg width="37" height="37" viewBox="0 0 37 37" id="plus-add" y="340"><defs><path id="a" d="M1164 126.5a18.5 18.5 0 1 1 37 0 18.5 18.5 0 0 1-37 0z"></path><path id="b" d="M1181.62 125.62h-3.64c-.53 0-.92.28-.92.88s.39.88.92.88h3.64v3.64c0 .53.28.92.88.92s.88-.39.88-.92v-3.64h3.64c.53 0 .92-.28.92-.88s-.39-.88-.92-.88h-3.64v-3.64c0-.53-.28-.92-.88-.92s-.88.39-.88.92z"></path></defs><g transform="translate(-1164 -108)"><use fill="#4489ff" xlink:href="#a"></use><use fill="#fff" xlink:href="#b"></use></g></svg><svg width="12" height="12" viewBox="0 0 12 12" id="plus-black" y="377"><title>Page 1</title><g stroke="#000" stroke-width="2" fill="none" fill-rule="evenodd" opacity=".7" stroke-linejoin="round"><path d="M6 0v12M0 6h12"></path></g></svg><svg width="12" height="12" viewBox="0 0 12 12" id="plus-white" y="389"><title>Page 1</title><g stroke="#FFF" stroke-width="2" fill="none" fill-rule="evenodd" stroke-linejoin="round"><path d="M6 0v12M0 6h12"></path></g></svg><svg width="16" height="16" viewBox="0 0 16 16" id="popup-back" y="401"><defs><path id="a" d="M41 44H27"></path><path id="b" d="M34 51l-7-7 7-7"></path></defs><g transform="translate(-26 -36)"><use fill="#fff" fill-opacity="0" stroke="#000" stroke-linecap="round" stroke-linejoin="round" stroke-miterlimit="50" stroke-width="2" xlink:href="#a"></use><use fill="#fff" fill-opacity="0" stroke="#000" stroke-linecap="round" stroke-linejoin="round" stroke-miterlimit="50" stroke-width="2" xlink:href="#b"></use></g></svg><svg width="15" height="15" viewBox="0 0 15 15" id="search-black" y="417"><title>Page 1</title><g transform="translate(1 1)" stroke="#000" stroke-width="2" fill="none" fill-rule="evenodd" opacity=".7" stroke-linejoin="round"><path d="M5.077 0a5.077 5.077 0 1 1 0 10.153A5.077 5.077 0 0 1 5.078 0z" stroke-linecap="round"></path><path d="M12.5 12.5L8.736 8.736"></path></g></svg><svg width="15" height="15" viewBox="0 0 15 15" id="search-white" y="432"><title>Page 1</title><g transform="translate(1 1)" stroke="#FFF" stroke-width="2" fill="none" fill-rule="evenodd" stroke-linejoin="round"><path d="M5.077 0a5.077 5.077 0 1 1 0 10.153A5.077 5.077 0 0 1 5.078 0z" stroke-linecap="round"></path><path d="M12.5 12.5L8.736 8.736"></path></g></svg><svg width="14" height="11" viewBox="0 0 14 11" id="seen" y="447"><title>Seen</title><g transform="translate(1 1)" stroke="#89A1B3" fill="none" fill-rule="evenodd" stroke-linecap="round" stroke-linejoin="round"><path d="M0 4.364S2.182 0 6 0s6 4.364 6 4.364-2.182 4.363-6 4.363-6-4.363-6-4.363z"></path><path d="M6 2.727A1.636 1.636 0 1 1 6 6a1.636 1.636 0 0 1 0-3.273z"></path></g></svg><svg width="19" height="19" viewBox="0 0 19 19" id="shops-small" y="458"><defs><path id="a" d="M32 184.72c0-4.5 2.83-4.72 2.83-4.72h11.81s2.36-.14 2.36 4.72v10.4c0 1.03-.85 1.88-1.89 1.88H33.9a1.89 1.89 0 0 1-1.89-1.89z"></path><path id="b" d="M37.95 197v-8.5h5.95v8.5"></path><path id="c" d="M37.95 183.4c0 1.4-1.33 2.55-2.98 2.55-1.64 0-2.97-1.14-2.97-2.55"></path><path id="d" d="M43.05 183.4a2.55 2.55 0 1 1-5.1 0"></path><path id="e" d="M49 183.4c0 1.4-1.33 2.55-2.98 2.55-1.64 0-2.97-1.14-2.97-2.55"></path><path id="f" d="M37.95 183.4V180"></path><path id="g" d="M43.05 183.4V180"></path></defs><g transform="translate(-31 -179)"><use fill="#fff" fill-opacity="0" stroke="#4489ff" stroke-linecap="round" stroke-linejoin="round" stroke-miterlimit="50" stroke-width="1.2" xlink:href="#a"></use><use fill="#fff" fill-opacity="0" stroke="#4489ff" stroke-linecap="round" stroke-linejoin="round" stroke-miterlimit="50" stroke-width="1.2" xlink:href="#b"></use><use fill="#fff" fill-opacity="0" stroke="#4489ff" stroke-linecap="round" stroke-linejoin="round" stroke-miterlimit="50" stroke-width="1.2" xlink:href="#c"></use><use fill="#fff" fill-opacity="0" stroke="#4489ff" stroke-linecap="round" stroke-linejoin="round" stroke-miterlimit="50" stroke-width="1.2" xlink:href="#d"></use><use fill="#fff" fill-opacity="0" stroke="#4489ff" stroke-linecap="round" stroke-linejoin="round" stroke-miterlimit="50" stroke-width="1.2" xlink:href="#e"></use><use fill="#fff" fill-opacity="0" stroke="#4489ff" stroke-linecap="round" stroke-linejoin="round" stroke-miterlimit="50" stroke-width="1.2" xlink:href="#f"></use><use fill="#fff" fill-opacity="0" stroke="#4489ff" stroke-linecap="round" stroke-linejoin="round" stroke-miterlimit="50" stroke-width="1.2" xlink:href="#g"></use></g></svg><svg width="13" height="13" viewBox="0 0 13 13" id="time" y="477"><title>Time</title><g transform="translate(1 1)" stroke="#89A1B3" fill="none" fill-rule="evenodd" stroke-linecap="round" stroke-linejoin="round"><path d="M5.5 0a5.5 5.5 0 1 1 0 11 5.5 5.5 0 0 1 0-11z"></path><path d="M5.5 2.2v3.3l1.65 1.65"></path></g></svg><svg width="16" height="18" viewBox="0 0 16 18" id="users-small" y="490"><defs><path id="a" d="M209 199v-1.89c0-2.07-1.57-3.76-3.5-3.76h-7c-1.93 0-3.5 1.69-3.5 3.76V199"></path><path id="b" d="M198.73 186.76a3.75 3.75 0 0 1 3.73-3.76 3.75 3.75 0 0 1 3.74 3.77 3.75 3.75 0 0 1-3.73 3.76 3.75 3.75 0 0 1-3.74-3.77z"></path></defs><g transform="translate(-194 -182)"><use fill="#fff" fill-opacity="0" stroke="#000" stroke-linecap="round" stroke-linejoin="round" stroke-miterlimit="50" stroke-width="1.5" xlink:href="#a"></use><use fill="#fff" fill-opacity="0" stroke="#000" stroke-linecap="round" stroke-linejoin="round" stroke-miterlimit="50" stroke-width="1.5" xlink:href="#b"></use></g></svg></svg>